<svg xmlns="http://www.w3.org/2000/svg" viewBox="0 0 538 459">
  <g fill="none" fill-rule="evenodd">
    <path d="M113.246 40.6S111.847-2.57 72.713.93s-87.134 142.5-68.134 198.5 76.5 57.17 76.5 57.17l32.167-216" fill="#EEE4B9"/>
    <path d="M120.246 133.27s-4.334-78.67-7-92.67c-2.667-14-61.334 4.33-71.334 92.67-10 88.33 37 125 39.167 123.33 2.167-1.67 39.167-123.33 39.167-123.33" fill="#D86437"/>
    <path d="M120.246 134.43s-.873-35.08-2.52-42.54C64.579 87.9 28.079 222.43 77.079 254.93c32-74.5 43.167-120.5 43.167-120.5M132.329 343.18c-2.75 5-30.75 51.75-35.5 59.75s-25.25 54.75-30.5 51.75-6.5-57-7-70.25 22.5-136.5 27.75-144.25 45.25 103 45.25 103M276.829 346.68c-.75.5-4 34.25-9 51.5s-4.25 56.75 3 58.75 18-32.25 20.25-36 55-59.5 55.25-65-8.5-25-8.5-25l-61 15.75" fill="#C2362B"/>
    <path d="M164.246 319.6s67.666 60.67 163.333 34.33c-.667-37.33-47.333-79.33-47.333-79.33l-99-15.33-17 60.33" fill="#EEE4B9"/>
    <path d="M518.579 110.27c-2.25-.09-22.25 0-22.25 0s-20.417-51-46.083-56.67c-18.667-24-58.334-72.33-143.667-38.33s-51.333 122.5-51.333 122.5-22 12.83-20.667 30.16c-34-38.66-142.667-72-158.667 16.67s32.667 194.67 43.334 214.67c10.666 20 64.333 64.16 68.333 58.66s-27.5-72-27-78.5 26.5-88 29.5-90.5 113 30 126 42c6.5 19 49 115 99 122 6-8-10-30-10-31.5s-4.5-65.5-4.5-65.5l133.079-229-15.079-16.66" fill="#D86437"/>
    <path d="M418.246 60.6c-.463-.89-37.667-70.33-104.667-40.33s-20 141.2 68.333 153.1c88.334 11.9 44-98.1 36.334-112.77" fill="#E78744"/>
    <path d="M400.579 355.93s-28.667-78-13.333-136c4.666-12.66 38.348 16.67 38.348 16.67s-64.348-139.33-50.348-148c14-8.67 125.333 72.67 125.333 72.67s-17.333-42.34 29.667-35c13 22.66-15.334 39.66-15.334 39.66s22.334 188-114.333 190" fill="#EEE4B9"/>
    <path d="M518.579 110.27c-.487.11 15.079 27.5 15.079 27.5s5.921-16.17 3.588-22.67c-2.334-6.5-10.834-6.67-18.667-4.83" fill="#53433B"/>
    <path d="M423.829 64.06c.006-.38 10.5-47.5 17.125-45.25s15.253 43.5 12.502 43c-2.752-.5-13.627-16.88-13.627-16.88s-16.125 26.63-16 19.13" fill="#EEE4B9"/>
    <path d="M294.492 200.36c24-17.5 56.5 12.5 61-10.5-101.47-33.82-100.599-125.92-100.587-126.88-14.578 36.04.253 74.71.253 74.71s-22 12.84-20.666 30.17c-6.16-7.01-14.792-13.82-24.858-19.79-4.365 98 117.858 127.79 117.858 127.79s-57-58-33-75.5" fill="#C2362B"/>
    <path d="M478.246 77.77c-.091.23-2.167 7.91 1.416 9.66 3.584 1.75 5.834-1.66 4.417-6.41-1.417-4.75-5.083-5.17-5.833-3.25" fill="#EEE4B9"/>
    <path d="M325.988 354.36s-82.824 24.54-151.617-21.61c1.04-3.21 7.572-22.84 7.572-22.84s39.788 37.21 144.045 44.45" fill="#DDCDA9"/>
    <path d="M387.246 330.93c-.667-5.66-5.334-81.66-24-104.66-18.667-23-44-26-47.334-8-3.333 18 36.334 82 36.334 82s-31.667-20.01-33.334 1.99c-1.666 22.01 54 123.01 69.667 100.67 15.667-22.33-1.333-72-1.333-72M234.246 239.79c-.457-1.03-48.667-99.52-96-90.52-47.334 9-60.667 71.33-40.334 140.66 20.334 69.34 71.585 7 76.459-38.33 35.541 28.67 68.208 7.06 59.875-11.81" fill="#E78744"/>
  </g>
</svg>