<svg xmlns="http://www.w3.org/2000/svg" viewBox="0 0 652 400">
  <g fill="#000" fill-rule="evenodd">
    <path d="M204.73 66.7c-.05.243-.096.49-.133.742-4.215-.184-9.462.711-14.825 2.743-11.075 4.2-18.44 11.656-16.446 16.657 1.99 5.001 12.583 5.65 23.658 1.451 5.162-1.955 9.516-4.62 12.495-7.413 2.316 2.183 5.043 3.141 7.344 2.27 2.302-.875 3.654-3.377 3.85-6.513 4.13.1 9.187-.804 14.346-2.76 11.075-4.198 18.439-11.657 16.447-16.658-1.99-4.999-12.583-5.649-23.658-1.45-5.364 2.032-9.857 4.83-12.84 7.741a10.93 10.93 0 00-.608-.46c.746-1.306.944-2.754.422-4.066-.034-.08-.068-.16-.105-.237.284-1.178-.481-2.593-1.92-3.379-1.646-.897-3.556-.628-4.29.6a8.935 8.935 0 00-2.254.543 9.005 9.005 0 00-2.038 1.083c-1.392-.423-2.985.638-3.58 2.387-.516 1.523-.102 3.07.92 3.753.03.082.058.165.089.244.524 1.313 1.673 2.251 3.127 2.721M500.196 210.432c.153-.05.309-.108.462-.167 1.262 2.33 3.467 4.867 6.353 7.1 5.96 4.607 12.566 6.16 14.75 3.47 2.187-2.69-.872-8.609-6.833-13.218-2.778-2.146-5.695-3.63-8.24-4.33.487-1.954.147-3.734-1.092-4.693-1.238-.958-3.092-.874-4.932.035-1.281-2.26-3.427-4.688-6.205-6.838-5.961-4.609-12.566-6.16-14.752-3.472-2.188 2.693.874 8.61 6.835 13.218 2.885 2.231 5.92 3.747 8.535 4.411-.026.161-.048.32-.062.48-.981.018-1.866.378-2.438 1.084-.037.046-.068.088-.102.133-.757.23-1.31 1.1-1.29 2.126.025 1.181.794 2.124 1.726 2.121a5.63 5.63 0 001.038 1.037c.405.315.833.565 1.273.75.209.883 1.326 1.402 2.508 1.155 1.032-.215 1.772-.938 1.829-1.712.036-.04.073-.082.107-.125.576-.708.734-1.63.53-2.565M424.431 27.844c.202-.121.4-.254.6-.397 2.623 2.878 6.666 5.729 11.564 7.91 10.117 4.503 20.05 4.456 22.184-.114 2.14-4.566-4.329-11.92-14.446-16.423-4.714-2.101-9.388-3.21-13.252-3.335-.008-2.941-1.133-5.351-3.234-6.286-2.103-.938-4.705-.187-6.99 1.732-2.628-2.767-6.548-5.485-11.262-7.583-10.117-4.507-20.05-4.457-22.187.11-2.137 4.57 4.33 11.922 14.445 16.427 4.9 2.183 9.754 3.294 13.703 3.345.02.237.048.47.082.7-1.383.363-2.508 1.18-3.07 2.378-.034.075-.068.147-.096.224-.995.585-1.468 2.008-1.069 3.458.46 1.664 1.891 2.739 3.212 2.418a8.435 8.435 0 001.845 1.12 8.433 8.433 0 002.075.626c.618 1.186 2.39 1.537 3.977.783 1.386-.658 2.177-1.936 1.98-3.052a3.2 3.2 0 00.11-.22c.561-1.196.456-2.558-.17-3.821M317.755 240.048a8.267 8.267 0 00-.025-.604c3.345-.548 7.316-2.111 11.18-4.59 7.982-5.116 12.484-12.183 10.057-15.786-2.426-3.603-10.865-2.377-18.845 2.739-3.719 2.384-6.68 5.19-8.54 7.874-2.197-1.335-4.507-1.64-6.166-.577-1.658 1.063-2.287 3.25-1.902 5.747-3.262.6-7.08 2.14-10.8 4.525-7.982 5.116-12.484 12.183-10.057 15.786 2.426 3.603 10.865 2.378 18.845-2.74 3.866-2.476 6.913-5.41 8.756-8.188.187.094.371.182.558.26-.36 1.149-.266 2.32.37 3.266.038.058.081.115.121.17-.017.973.827 1.959 2.092 2.34 1.448.436 2.905-.09 3.271-1.174a7.188 7.188 0 001.675-.797 7.068 7.068 0 001.417-1.185c1.165.102 2.237-.991 2.401-2.462.142-1.282-.45-2.43-1.372-2.802-.034-.06-.073-.12-.11-.176-.638-.945-1.704-1.493-2.926-1.626M28.354 223.539c-.136.13-.27.266-.402.41-2.557-1.831-6.225-3.407-10.452-4.32-8.725-1.882-16.523-.212-17.416 3.728-.893 3.94 5.457 8.66 14.185 10.539 4.065.879 7.928.984 10.987.449.516 2.31 1.814 4.019 3.628 4.41 1.814.39 3.728-.627 5.193-2.51 2.543 1.745 6.095 3.238 10.16 4.114 8.725 1.883 16.523.215 17.416-3.725.893-3.94-5.457-8.66-14.182-10.541-4.227-.911-8.235-.99-11.344-.381a10.62 10.62 0 00-.187-.538c1.026-.513 1.768-1.338 2.004-2.372.014-.063.025-.125.034-.191.683-.62.808-1.817.246-2.893-.646-1.234-1.958-1.843-2.942-1.376a6.845 6.845 0 00-1.641-.575 6.83 6.83 0 00-1.741-.153c-.69-.831-2.14-.817-3.26.037-.975.743-1.377 1.88-1.03 2.724a2.302 2.302 0 00-.05.19c-.232 1.032.085 2.086.794 2.974M609.216 369.478c-.224.144-.443.297-.66.462-3.034-3.161-7.66-6.248-13.227-8.564-11.498-4.779-22.658-4.444-24.925.749-2.265 5.19 5.215 13.272 16.716 18.051 5.357 2.228 10.641 3.345 14.986 3.376.1 3.305 1.43 5.981 3.82 6.973 2.391.992 5.291.077 7.802-2.143 3.033 3.036 7.518 5.981 12.878 8.206 11.498 4.78 22.655 4.448 24.922-.744 2.268-5.191-5.212-13.276-16.713-18.055-5.567-2.313-11.055-3.427-15.49-3.373a11.581 11.581 0 00-.114-.785c1.545-.448 2.783-1.395 3.38-2.756.035-.085.07-.17.101-.252 1.1-.686 1.587-2.298 1.1-3.917-.565-1.857-2.206-3.028-3.68-2.628a9.41 9.41 0 00-2.106-1.208 9.784 9.784 0 00-2.35-.646c-.729-1.312-2.73-1.658-4.493-.768-1.536.776-2.39 2.239-2.134 3.486-.043.083-.08.162-.117.247-.595 1.361-.436 2.891.304 4.289"/>
  </g>
</svg>