<svg xmlns="http://www.w3.org/2000/svg" xmlns:xlink="http://www.w3.org/1999/xlink" viewBox="0 0 1276 1276">
  <defs>
    <path d="M537.82 235.405a19.84 19.84 0 00.175-2.634c0-4.697-1.652-9.125-4.578-13.028 19.409-3.934 34.013-21.007 34.013-41.474 0-3.965-.55-7.803-1.573-11.443 9.802-1.888 16.917-7.554 16.917-14.25 0-8.24-10.78-14.921-24.077-14.921-5.392 0-10.369 1.099-14.383 2.957a42.268 42.268 0 00-8.524-3.264c-4.224-8.069-14.185-14.626-27.028-17.957 1.907-3.946 2.933-8.133 2.933-12.47 0-23.785-30.843-43.066-68.887-43.066-33.174 0-60.868 14.66-67.417 34.185-8.702-7.256-19.644-11.582-31.529-11.582-16.501 0-31.179 8.334-40.573 21.28-5.201 5.488-9.552 12.611-12.704 20.863-5.029-12.413-19.37-21.374-36.275-21.374-7.135 0-13.811 1.599-19.523 4.374-6.429-7.735-18.277-12.926-31.83-12.926-7.223 0-13.958 1.474-19.65 4.023 1.358-2.447 2.115-5.151 2.115-7.994 0-10.964-11.217-19.854-25.05-19.854-3.441 0-6.721.55-9.706 1.545-4.725-6.616-11.675-11.63-19.811-14.03a22.596 22.596 0 001.335-7.635c0-13.499-12.095-24.82-28.403-27.916 3.271-2.8 5.233-6.389 5.233-10.307C109.02 7.568 98.787.319 86.161.319c-11.435 0-20.911 5.947-22.592 13.714a23.91 23.91 0 00-7.877-1.33c-14.471 0-26.204 12.955-26.204 28.934 0 4.195.808 8.181 2.262 11.778-3.416 4.835-6.021 10.638-7.537 17.053a30.111 30.111 0 00-12.149 1.894c-.93-4.102-5.131-7.515-10.834-9.094-.071.93-.204 1.851-.394 2.761.286.609.55 1.227.785 1.856 7.186 4.839 12.2 12.28 12.2 21.155 0 .302-.006.601-.017.899 3.793 7.138 5.655 15.197 5.655 23.233 0 .802-.02 1.598-.056 2.398 4.322 8.025 6.318 17.314 6.318 26.317 0 .811-.017 1.621-.048 2.432 11.701 4.428 21.965 13.348 21.965 26.453 0 9.706-5.782 17.26-13.555 22.283.42.958.805 1.93 1.157 2.917 9.816 5.638 18.246 13.422 24.236 22.861 17.66 1.582 34.41 9.252 46.327 22.068 7.903-1.44 15.953-2.135 23.981-2.135 18.915 0 38.899 3.943 55.777 12.81 17.229-13.496 38.653-20.832 60.936-20.832 28.041 0 54.488 11.659 72.8 31.848 14.479-10.355 31.932-16.033 50.159-16.033 3.934 0 7.86.263 11.749.794 6.126-19.698 23.721-34.937 45.907-34.937 15.517 0 29.297 7.645 38.112 19.493a68.543 68.543 0 0120.129-2.999c14.581 0 28.851 4.595 40.232 13.255 3.753-2.71 7.883-4.952 12.235-6.76" id="a"/>
    <path d="M30.563 129.942c-16.342 0-29.588 12.923-29.588 28.865 0 15.942 13.246 28.863 29.588 28.863 2.928 0 5.76-.417 8.433-1.191-3.662 7.793-5.746 16.753-5.746 26.286 0 24.973 14.301 46.015 33.8 52.452a38.587 38.587 0 00-.609 6.832c0 8.909 3.047 17.112 8.164 23.643.759 22.709 22.028 41.828 51.216 48.47a35.8 35.8 0 002.631 2.928c-.006.187-.012.374-.012.564 0 13.062 13.694 24.185 32.857 28.384-4.972 4.782-7.807 10.284-7.807 16.143 0 18.388 27.896 33.295 62.311 33.295 6.319 0 12.416-.504 18.162-1.439 8.665 12.418 21.997 20.378 36.952 20.378 25.764 0 46.715-23.607 47.276-52.971 12.175 25.733 40.814 43.806 74.212 43.806 24.165 0 45.841-9.464 60.593-24.445 10.791 9.184 24.443 14.671 39.291 14.671 24.619 0 45.95-15.08 56.401-37.089 16.934 13.816 40.813 22.426 67.283 22.426 31.547 0 59.417-12.229 76.232-30.929 2.316.25 4.669.383 7.053.383 12.126 0 23.454-3.314 33.06-9.054a14.636 14.636 0 00-.181 2.29c0 10.82 11.88 19.593 26.538 19.593s26.541-8.773 26.541-19.593c0-6.205-3.909-11.735-10.007-15.327 4.275-1.207 7.702-2.656 10.001-4.266 21.535-3.197 37.731-16.985 37.731-33.514 0-14.797-12.986-27.399-31.158-32.167 8.793-9.465 14.25-22.66 14.25-37.253 0-10.865-3.027-20.951-8.201-29.302 13.919-1.964 24.483-11.585 24.483-23.153 0-9.57-7.229-17.805-17.604-21.478 4.956-2.305 8.209-6.197 8.209-10.608 0-7.081-8.376-12.818-18.708-12.818-10.332 0-18.708 5.737-18.708 12.818 0 4.023 2.707 7.611 6.939 9.964-11.443 3.274-19.621 11.943-19.621 22.122 0 .173.003.346.008.516a42.583 42.583 0 00-2.352-.165c-7.583-3.129-16.521-4.935-26.088-4.935-18.258 0-34.214 6.571-42.862 16.362-9.53-10.361-23.987-16.971-40.173-16.971-8.926 0-17.322 2.009-24.661 5.55-6.183-13.076-18.896-22.045-33.58-22.045-19.757 0-35.954 16.24-37.459 36.87a75.686 75.686 0 00-20.197-2.73c-20.055 0-38.271 7.804-51.741 20.52-15.483-21.928-41.604-36.334-71.218-36.331-23.213-.003-44.277 8.849-59.754 23.235-14.471-9.388-34.642-15.216-56.959-15.216-9.899 0-19.372 1.148-28.117 3.243-10.477-14.06-28.344-23.361-48.651-23.48-5.491-10.975-14.962-20.083-26.819-25.928-1.168-5.227-3.693-10.126-7.296-14.499 10.641-3.022 18.062-9.831 18.062-17.745 0-9.077-9.757-16.696-22.938-18.825a49.374 49.374 0 001.018-10.06c0-9.244-2.48-17.649-6.54-23.922a41.5 41.5 0 00.278-4.793c0-7.966-2.248-15.29-6.009-21.079.246-.989.374-2.009.374-3.053 0-6.026-4.283-11.327-10.752-14.374-.332-2.662-1.451-5.176-3.206-7.449.924-1.744 1.432-3.657 1.432-5.667 0-8.099-8.272-14.661-18.474-14.661-7.977 0-14.774 4.015-17.359 9.635-13.935 1.993-24.367 10.107-24.367 19.813 0 2.357.618 4.619 1.749 6.725a49.947 49.947 0 00-5.031-.252c-22.771 0-41.264 15.335-41.556 34.344-2.512 5.313-3.926 11.299-3.926 17.629 0 3.875.527 7.621 1.516 11.16a38.759 38.759 0 00-5.811 10.208c-7.024 4.288-11.88 11.486-12.682 19.794l-.116-.003" id="c"/>
    <path d="M16.393.502C7.402.502.111 6.929.111 14.86c0 7.928 7.291 14.355 16.282 14.355 8.995 0 16.283-6.427 16.283-14.355 0-7.931-7.288-14.358-16.283-14.358" id="e"/>
    <path d="M23.663.101c-10.511 0-19.031 5.717-19.031 12.77 0 3.316 1.882 6.334 4.969 8.606-5.51 3.566-8.864 8.28-8.864 13.445 0 11.133 15.563 20.163 34.758 20.163 19.197 0 34.755-9.03 34.755-20.163 0-9.763-11.968-17.907-27.859-19.761a8.822 8.822 0 00.305-2.29c0-7.053-8.521-12.77-19.033-12.77" id="g"/>
    <path d="M88.012.834c-17.122 0-31 10.256-31 22.909 0 .27.008.536.02.803a88.943 88.943 0 00-9.414-.496C21.678 24.05.651 35.127.651 48.79c0 13.665 21.027 24.744 46.967 24.744 25.94 0 46.97-11.079 46.97-24.744 0-.881-.091-1.755-.261-2.613 14.091-2.155 24.684-11.381 24.684-22.434 0-12.653-13.878-22.909-30.999-22.909" id="i"/>
    <path d="M20.171.13C9.535.13.915 3.821.915 8.376c0 4.555 8.62 8.246 19.256 8.246 10.635 0 19.255-3.691 19.255-8.246 0-4.555-8.62-8.246-19.255-8.246" id="k"/>
    <path d="M12.265.84C5.694.84.368 4.533.368 9.089c0 4.555 5.326 8.246 11.897 8.246 6.571 0 11.897-3.691 11.897-8.246 0-4.556-5.326-8.249-11.897-8.249" id="m"/>
  </defs>
  <g fill="none" fill-rule="evenodd">
    <path fill="#FFF" d="M0 1275.589h1275.59V0H0z"/>
    <path d="M452.083 496.969c6.749-7.007 15.982-11.465 26.609-11.465.433 0 .864.008 1.298.025 6.843-8.252 18.504-12.408 29.171-12.408 9.204 0 19.211 3.212 26.167 9.322a12.47 12.47 0 011.437-1.166 64.981 64.981 0 016.829-4.149c-3.226-6.569-5.018-13.781-5.018-21.363 0-24.526 17.949-42.953 39.668-51.275 3.272-33.361 30.374-60.66 64.934-60.66 5.334 0 10.598.666 15.701 1.97 2.165-9.85 6.191-19.377 12.345-27.172v-.006c0-24.851 12.894-53.212 38.636-60.282a40.679 40.679 0 0119.258-.569c4.607-15.876 16.453-29.756 34.2-29.756 19.523 0 31.958 16.861 35.388 34.642 25.974 9.947 41.576 37.353 41.576 65.124 0 8.611-1.437 17.167-4.28 25.222a47.84 47.84 0 012.335.624c28.616 8.436 43.277 39.688 43.277 67.688a85.58 85.58 0 01-1.673 16.92c21.232 9.984 38.087 29.067 38.087 53.728 0 2.112-.131 4.218-.389 6.307 7.379 10.486 11.569 22.746 11.569 35.76a60.29 60.29 0 01-2.041 15.536c-.434 1.627-1.137 3.076-2.087 4.32 10.31 7.467 18.632 17.728 21.096 30.535a39.664 39.664 0 01.428 12.28c3.648 1.638 7.171 3.611 10.403 5.938a24.976 24.976 0 01-4.093-13.779c0-15.421 13.544-26.555 28.479-26.555 14.936 0 28.483 11.134 28.483 26.555 0 10.548-6.341 19.091-15.129 23.437 12.138 3.424 23.227 11.693 23.227 25.279 0 10.398-6.837 17.921-15.448 22.337a55.25 55.25 0 01.102 3.356c0 20.965-11.994 39.549-29.974 48.64.173.933.306 1.874.397 2.826a85.358 85.358 0 0118.337-1.995c6.616 0 13.295.745 19.761 2.307 2.375-4.589 5.825-8.575 9.958-11.809a21.225 21.225 0 01-.802-5.803c0-16.219 16.531-25.015 30.905-25.015 14.374 0 30.906 8.796 30.906 25.015 0 2.841-.549 5.514-1.542 7.971 6.619 6.154 10.936 14.468 10.936 24.115 0 13.719-8.51 24.409-19.887 30.379 2.395 7.078 3.606 14.541 3.606 22.076 0 11.1-2.64 22.036-7.743 31.739 13.905 7.807 24.65 20.79 24.65 37.681 0 22.723-19.011 37.942-39.412 43.702a26.985 26.985 0 011.599 7.237 38.866 38.866 0 0110.34-1.432c11.867 0 25.363 5.879 29.762 17.051 14.524 4.07 29.023 13.736 29.023 29.968 0 1.36-.115 2.718-.343 4.059-3.48 20.415-28.714 28.301-46.61 28.301-17.895 0-43.128-7.886-46.609-28.301a24.013 24.013 0 01-.346-4.059c0-5.678 1.939-10.749 5.094-15.05a18.173 18.173 0 01-.196-.584c-5.893 2.631-12.458 4.006-18.765 4.006-13.193 0-27.505-6.012-34.461-16.957a77.018 77.018 0 01-24.956 4.127c-.734 0-1.471-.008-2.206-.031-21.237 20.665-51.8 30.577-81.079 30.577-22.065 0-44.578-5.544-63.51-17.064-13.813 19.335-35.677 31.728-60.174 31.728-13.802 0-27.026-3.954-38.503-11.188-17.266 13.802-39.189 20.962-61.381 20.962-25.441 0-50.675-9.618-68.491-27.232-9.437 20.776-28.525 36.396-52.997 36.396-16.543 0-31.47-7.517-42.213-19.584-4.286.434-8.598.646-12.901.646-16.724 0-34.948-3.248-49.81-11.191-13.014-6.956-24.698-18.573-24.698-34.302 0-3.345.544-6.548 1.539-9.581-12.26-5.74-23.057-15.092-25.875-28.154a102.658 102.658 0 01-4.541-1.457c2.401 4.297 3.793 9.23 3.793 14.754 0 15.662-11.574 26.904-25.367 31.992-2.648 9.51-10.537 16.713-19.327 21.342-11.645 6.137-25.829 8.654-38.897 8.654-13.068 0-27.249-2.517-38.897-8.654-10.814-5.695-20.268-15.293-20.268-28.287s9.454-22.589 20.268-28.287c11.523-6.069 25.526-8.597 38.48-8.651a30.61 30.61 0 013.05-5.491c-8.722-2.588-16.083-9.357-16.083-19.272 0-12.875 12.412-20.447 24.097-20.447 11.684 0 24.097 7.572 24.097 20.447 0 .64-.031 1.267-.091 1.879a50.37 50.37 0 015.741-.332c2.083 0 4.198.134 6.312.4-8.926-8.853-15.207-19.919-16.633-33.021a50.368 50.368 0 01-8.439-27.085c-21.311-11.528-33.199-36.042-33.199-60.165 0-4.601.411-9.193 1.236-13.706-18.93-3.756-33.512-20.143-33.512-40.252 0-19.61 13.87-35.682 32.114-39.951 2.563-6.608 6.959-12.396 12.66-16.75a49.736 49.736 0 012.585-4.764 54.014 54.014 0 01-.681-8.559 53.515 53.515 0 014.051-20.477c1.797-23.769 22.567-39.844 45.199-43.09 2.624-13.595 15.553-22.254 28.706-25.636 5.956-7.115 15.409-10.891 24.735-10.891 1.057 0 2.112.051 3.164.151-2.818-2.929-4.595-6.693-4.595-11.464 0-15.619 19.02-20.446 31.456-20.446 8.66 0 20.514 2.341 26.912 9.039zm-11.792 29.598c-5.083 1.6-10.548 2.255-15.12 2.255-2.313 0-4.856-.167-7.461-.541 2.384 2.219 4.36 4.83 5.766 7.775 1.312-.07 2.653.08 4.011.457 4.07 1.125 8.016 3.014 11.31 5.626a60.601 60.601 0 012.653-5.434 43.986 43.986 0 01-1.159-10.068v-.07zm527.828 85.767a29.826 29.826 0 01-2.061-1.114c.215.275.428.555.635.836.349.127.697.258 1.043.391.128-.037.255-.077.383-.113z" fill="#965312"/>
    <g transform="translate(423 485)">
      <mask id="b" fill="#fff">
        <use xlink:href="#a"/>
      </mask>
      <path d="M537.82 235.405a19.84 19.84 0 00.175-2.634c0-4.697-1.652-9.125-4.578-13.028 19.409-3.934 34.013-21.007 34.013-41.474 0-3.965-.55-7.803-1.573-11.443 9.802-1.888 16.917-7.554 16.917-14.25 0-8.24-10.78-14.921-24.077-14.921-5.392 0-10.369 1.099-14.383 2.957a42.268 42.268 0 00-8.524-3.264c-4.224-8.069-14.185-14.626-27.028-17.957 1.907-3.946 2.933-8.133 2.933-12.47 0-23.785-30.843-43.066-68.887-43.066-33.174 0-60.868 14.66-67.417 34.185-8.702-7.256-19.644-11.582-31.529-11.582-16.501 0-31.179 8.334-40.573 21.28-5.201 5.488-9.552 12.611-12.704 20.863-5.029-12.413-19.37-21.374-36.275-21.374-7.135 0-13.811 1.599-19.523 4.374-6.429-7.735-18.277-12.926-31.83-12.926-7.223 0-13.958 1.474-19.65 4.023 1.358-2.447 2.115-5.151 2.115-7.994 0-10.964-11.217-19.854-25.05-19.854-3.441 0-6.721.55-9.706 1.545-4.725-6.616-11.675-11.63-19.811-14.03a22.596 22.596 0 001.335-7.635c0-13.499-12.095-24.82-28.403-27.916 3.271-2.8 5.233-6.389 5.233-10.307C109.02 7.568 98.787.319 86.161.319c-11.435 0-20.911 5.947-22.592 13.714a23.91 23.91 0 00-7.877-1.33c-14.471 0-26.204 12.955-26.204 28.934 0 4.195.808 8.181 2.262 11.778-3.416 4.835-6.021 10.638-7.537 17.053a30.111 30.111 0 00-12.149 1.894c-.93-4.102-5.131-7.515-10.834-9.094-.071.93-.204 1.851-.394 2.761.286.609.55 1.227.785 1.856 7.186 4.839 12.2 12.28 12.2 21.155 0 .302-.006.601-.017.899 3.793 7.138 5.655 15.197 5.655 23.233 0 .802-.02 1.598-.056 2.398 4.322 8.025 6.318 17.314 6.318 26.317 0 .811-.017 1.621-.048 2.432 11.701 4.428 21.965 13.348 21.965 26.453 0 9.706-5.782 17.26-13.555 22.283.42.958.805 1.93 1.157 2.917 9.816 5.638 18.246 13.422 24.236 22.861 17.66 1.582 34.41 9.252 46.327 22.068 7.903-1.44 15.953-2.135 23.981-2.135 18.915 0 38.899 3.943 55.777 12.81 17.229-13.496 38.653-20.832 60.936-20.832 28.041 0 54.488 11.659 72.8 31.848 14.479-10.355 31.932-16.033 50.159-16.033 3.934 0 7.86.263 11.749.794 6.126-19.698 23.721-34.937 45.907-34.937 15.517 0 29.297 7.645 38.112 19.493a68.543 68.543 0 0120.129-2.999c14.581 0 28.851 4.595 40.232 13.255 3.753-2.71 7.883-4.952 12.235-6.76" mask="url(#b)"/>
    </g>
    <g transform="translate(257 531)">
      <mask id="d" fill="#fff">
        <use xlink:href="#c"/>
      </mask>
      <path d="M30.563 129.942c-16.342 0-29.588 12.923-29.588 28.865 0 15.942 13.246 28.863 29.588 28.863 2.928 0 5.76-.417 8.433-1.191-3.662 7.793-5.746 16.753-5.746 26.286 0 24.973 14.301 46.015 33.8 52.452a38.587 38.587 0 00-.609 6.832c0 8.909 3.047 17.112 8.164 23.643.759 22.709 22.028 41.828 51.216 48.47a35.8 35.8 0 002.631 2.928c-.006.187-.012.374-.012.564 0 13.062 13.694 24.185 32.857 28.384-4.972 4.782-7.807 10.284-7.807 16.143 0 18.388 27.896 33.295 62.311 33.295 6.319 0 12.416-.504 18.162-1.439 8.665 12.418 21.997 20.378 36.952 20.378 25.764 0 46.715-23.607 47.276-52.971 12.175 25.733 40.814 43.806 74.212 43.806 24.165 0 45.841-9.464 60.593-24.445 10.791 9.184 24.443 14.671 39.291 14.671 24.619 0 45.95-15.08 56.401-37.089 16.934 13.816 40.813 22.426 67.283 22.426 31.547 0 59.417-12.229 76.232-30.929 2.316.25 4.669.383 7.053.383 12.126 0 23.454-3.314 33.06-9.054a14.636 14.636 0 00-.181 2.29c0 10.82 11.88 19.593 26.538 19.593s26.541-8.773 26.541-19.593c0-6.205-3.909-11.735-10.007-15.327 4.275-1.207 7.702-2.656 10.001-4.266 21.535-3.197 37.731-16.985 37.731-33.514 0-14.797-12.986-27.399-31.158-32.167 8.793-9.465 14.25-22.66 14.25-37.253 0-10.865-3.027-20.951-8.201-29.302 13.919-1.964 24.483-11.585 24.483-23.153 0-9.57-7.229-17.805-17.604-21.478 4.956-2.305 8.209-6.197 8.209-10.608 0-7.081-8.376-12.818-18.708-12.818-10.332 0-18.708 5.737-18.708 12.818 0 4.023 2.707 7.611 6.939 9.964-11.443 3.274-19.621 11.943-19.621 22.122 0 .173.003.346.008.516a42.583 42.583 0 00-2.352-.165c-7.583-3.129-16.521-4.935-26.088-4.935-18.258 0-34.214 6.571-42.862 16.362-9.53-10.361-23.987-16.971-40.173-16.971-8.926 0-17.322 2.009-24.661 5.55-6.183-13.076-18.896-22.045-33.58-22.045-19.757 0-35.954 16.24-37.459 36.87a75.686 75.686 0 00-20.197-2.73c-20.055 0-38.271 7.804-51.741 20.52-15.483-21.928-41.604-36.334-71.218-36.331-23.213-.003-44.277 8.849-59.754 23.235-14.471-9.388-34.642-15.216-56.959-15.216-9.899 0-19.372 1.148-28.117 3.243-10.477-14.06-28.344-23.361-48.651-23.48-5.491-10.975-14.962-20.083-26.819-25.928-1.168-5.227-3.693-10.126-7.296-14.499 10.641-3.022 18.062-9.831 18.062-17.745 0-9.077-9.757-16.696-22.938-18.825a49.374 49.374 0 001.018-10.06c0-9.244-2.48-17.649-6.54-23.922a41.5 41.5 0 00.278-4.793c0-7.966-2.248-15.29-6.009-21.079.246-.989.374-2.009.374-3.053 0-6.026-4.283-11.327-10.752-14.374-.332-2.662-1.451-5.176-3.206-7.449.924-1.744 1.432-3.657 1.432-5.667 0-8.099-8.272-14.661-18.474-14.661-7.977 0-14.774 4.015-17.359 9.635-13.935 1.993-24.367 10.107-24.367 19.813 0 2.357.618 4.619 1.749 6.725a49.947 49.947 0 00-5.031-.252c-22.771 0-41.264 15.335-41.556 34.344-2.512 5.313-3.926 11.299-3.926 17.629 0 3.875.527 7.621 1.516 11.16a38.759 38.759 0 00-5.811 10.208c-7.024 4.288-11.88 11.486-12.682 19.794l-.116-.003" mask="url(#d)"/>
    </g>
    <path d="M611.376 618.839c.235 1.718.357 3.47.357 5.25 0 13.442-6.874 25.313-17.379 32.457 4.932 16.412 20.477 28.4 38.897 28.4 19.576 0 35.909-13.541 39.699-31.541a24.114 24.114 0 01-2.483-10.678c0-1.111.079-2.206.224-3.28 1.644 12.087 12.248 21.413 25.089 21.413 12.838 0 23.443-9.326 25.087-21.413.147 1.074.224 2.169.224 3.28 0 13.637-11.333 24.692-25.311 24.692-9.431 0-17.654-5.031-22.008-12.492.006.326.011.655.011.981 0 21.838-18.147 39.54-40.532 39.54-21.813 0-39.597-16.806-40.493-37.871-6.245 3.833-13.632 6.052-21.555 6.052-22.385 0-40.532-17.702-40.532-39.54 0-1.78.121-3.532.357-5.25 2.63 19.352 19.613 34.288 40.175 34.288 20.56 0 37.542-14.936 40.173-34.288zm247.09 24.435a28.326 28.326 0 00-.258 3.818c0 15.883 13.195 28.755 29.475 28.755 16.279 0 29.474-12.872 29.474-28.755 0-1.293-.087-2.568-.26-3.818-1.914 14.074-14.264 24.936-29.214 24.936-14.953 0-27.303-10.862-29.217-24.936zm-25.356-41.701a27.858 27.858 0 00-.261 3.819c0 15.882 13.196 28.754 29.475 28.754 16.279 0 29.475-12.872 29.475-28.754 0-1.293-.088-2.569-.258-3.819-1.914 14.074-14.264 24.934-29.217 24.934-14.95 0-27.3-10.86-29.214-24.934zM546.862 834.128c.17 1.25.258 2.522.258 3.818 0 13.048-8.909 24.066-21.118 27.578 3.903 11.421 14.947 19.653 27.967 19.653 14.949 0 27.3-10.857 29.216-24.935.17 1.251.258 2.527.258 3.82 0 15.882-13.195 28.754-29.474 28.754-15.648 0-28.44-11.891-29.416-26.915-2.213.522-4.527.8-6.908.8-16.279 0-29.474-12.875-29.474-28.755 0-1.296.088-2.568.258-3.818 1.916 14.074 14.264 24.933 29.216 24.933 14.95 0 27.304-10.859 29.217-24.933M894.758 811.017a30.933 30.933 0 00-.289 4.221c0 10.8 5.525 20.341 13.969 26.081-3.963 13.193-16.458 22.825-31.263 22.825-15.732 0-28.857-10.88-31.904-25.348a19.37 19.37 0 001.995-8.58c0-.896-.062-1.775-.178-2.636-1.321 9.711-9.845 17.206-20.163 17.206s-18.842-7.495-20.166-17.206c-.116.861-.178 1.74-.178 2.636 0 10.959 9.108 19.842 20.344 19.842 7.577 0 14.187-4.042 17.685-10.037-.005.261-.008.524-.008.788 0 17.549 14.584 31.776 32.573 31.776 17.532 0 31.824-13.507 32.544-30.435 5.021 3.081 10.959 4.864 17.326 4.864 17.991 0 32.575-14.227 32.575-31.776 0-1.432-.099-2.841-.289-4.221-2.114 15.553-15.763 27.555-32.286 27.555-16.523 0-30.175-12.002-32.287-27.555M347.224 632.08a28.303 28.303 0 00-.261 3.818c0 15.881 13.198 28.755 29.477 28.755 16.277 0 29.475-12.874 29.475-28.755 0-1.295-.091-2.568-.261-3.818-1.913 14.075-14.264 24.933-29.214 24.933-14.952 0-27.303-10.858-29.216-24.933" fill="#361D05"/>
    <g transform="translate(965 574)">
      <mask id="f" fill="#fff">
        <use xlink:href="#e"/>
      </mask>
      <path d="M16.393.502C7.402.502.111 6.929.111 14.86c0 7.928 7.291 14.355 16.282 14.355 8.995 0 16.283-6.427 16.283-14.355 0-7.931-7.288-14.358-16.283-14.358" mask="url(#f)"/>
    </g>
    <g transform="translate(1041 913)">
      <mask id="h" fill="#fff">
        <use xlink:href="#g"/>
      </mask>
      <path d="M23.663.101c-10.511 0-19.031 5.717-19.031 12.77 0 3.316 1.882 6.334 4.969 8.606-5.51 3.566-8.864 8.28-8.864 13.445 0 11.133 15.563 20.163 34.758 20.163 19.197 0 34.755-9.03 34.755-20.163 0-9.763-11.968-17.907-27.859-19.761a8.822 8.822 0 00.305-2.29c0-7.053-8.521-12.77-19.033-12.77" mask="url(#h)"/>
    </g>
    <g transform="translate(242 875)">
      <mask id="j" fill="#fff">
        <use xlink:href="#i"/>
      </mask>
      <path d="M88.012.834c-17.122 0-31 10.256-31 22.909 0 .27.008.536.02.803a88.943 88.943 0 00-9.414-.496C21.678 24.05.651 35.127.651 48.79c0 13.665 21.027 24.744 46.967 24.744 25.94 0 46.97-11.079 46.97-24.744 0-.881-.091-1.755-.261-2.613 14.091-2.155 24.684-11.381 24.684-22.434 0-12.653-13.878-22.909-30.999-22.909" mask="url(#j)"/>
    </g>
    <g transform="translate(405 500)">
      <mask id="l" fill="#fff">
        <use xlink:href="#k"/>
      </mask>
      <path d="M20.171.13C9.535.13.915 3.821.915 8.376c0 4.555 8.62 8.246 19.256 8.246 10.635 0 19.255-3.691 19.255-8.246 0-4.555-8.62-8.246-19.255-8.246" mask="url(#l)"/>
    </g>
    <g transform="translate(288 853)">
      <mask id="n" fill="#fff">
        <use xlink:href="#m"/>
      </mask>
      <path d="M12.265.84C5.694.84.368 4.533.368 9.089c0 4.555 5.326 8.246 11.897 8.246 6.571 0 11.897-3.691 11.897-8.246 0-4.556-5.326-8.249-11.897-8.249" mask="url(#n)"/>
    </g>
    <path d="M683.94 448.182c.184 1.352.28 2.73.28 4.134 0 10.572-5.408 19.91-13.674 25.534 3.881 12.911 16.112 22.342 30.606 22.342 15.4 0 28.25-10.652 31.232-24.813a18.992 18.992 0 01-1.777-10.983c1.292 9.508 9.637 16.847 19.737 16.847 10.103 0 18.445-7.339 19.741-16.847.113.845.173 1.704.173 2.58 0 10.729-8.915 19.426-19.914 19.426-7.418 0-13.887-3.957-17.314-9.825.006.255.009.513.009.768 0 17.184-14.276 31.11-31.887 31.11-17.164 0-31.156-13.223-31.862-29.795-4.912 3.016-10.726 4.762-16.959 4.762-17.612 0-31.887-13.926-31.887-31.106 0-1.404.096-2.782.28-4.134 2.07 15.225 15.432 26.977 31.607 26.977 16.177 0 29.54-11.752 31.609-26.977M735.587 314.574c-.11.82-.17 1.654-.17 2.497 0 10.389 8.632 18.809 19.278 18.809 10.647 0 19.279-8.42 19.279-18.809 0-.843-.057-1.677-.167-2.497-1.253 9.207-9.332 16.311-19.112 16.311-9.776 0-17.855-7.104-19.108-16.311M752.173 341.849a18.59 18.59 0 00-.17 2.497c0 10.389 8.631 18.808 19.278 18.808 10.647 0 19.278-8.419 19.278-18.808 0-.844-.056-1.678-.17-2.497-1.25 9.207-9.329 16.31-19.108 16.31-9.78 0-17.855-7.103-19.108-16.31M328.115 594.994c-.11.816-.17 1.65-.17 2.495 0 10.389 8.632 18.807 19.279 18.807s19.278-8.418 19.278-18.807c0-.845-.057-1.679-.167-2.495-1.253 9.204-9.332 16.308-19.111 16.308-9.777 0-17.856-7.104-19.109-16.308M394.823 815.067c-.113.82-.17 1.653-.17 2.498 0 10.389 8.631 18.808 19.278 18.808 10.647 0 19.279-8.419 19.279-18.808 0-.845-.057-1.678-.17-2.498-1.253 9.207-9.329 16.311-19.109 16.311-9.779 0-17.858-7.104-19.108-16.311M638.294 915.153c-.111.817-.171 1.65-.171 2.497 0 10.387 8.632 18.806 19.279 18.806s19.278-8.419 19.278-18.806c0-.847-.056-1.68-.167-2.497-1.253 9.204-9.332 16.308-19.111 16.308-9.777 0-17.856-7.104-19.108-16.308M709.701 800.548c-.11.817-.17 1.65-.17 2.498 0 10.386 8.632 18.805 19.278 18.805 10.647 0 19.279-8.419 19.279-18.805 0-.848-.057-1.681-.167-2.498-1.253 9.205-9.332 16.308-19.112 16.308-9.776 0-17.855-7.103-19.108-16.308M1027.068 844.627c-.111.817-.167 1.65-.167 2.498 0 10.386 8.628 18.805 19.278 18.805 10.646 0 19.279-8.419 19.279-18.805 0-.848-.061-1.681-.171-2.498-1.252 9.204-9.332 16.308-19.108 16.308-9.779 0-17.858-7.104-19.111-16.308M911.689 689.751c-.11.816-.17 1.649-.17 2.494 0 10.389 8.632 18.808 19.282 18.808 10.647 0 19.278-8.419 19.278-18.808a18.5 18.5 0 00-.17-2.494c-1.253 9.204-9.332 16.307-19.108 16.307-9.78 0-17.859-7.103-19.112-16.307M737.138 705.619c-.111.816-.17 1.65-.17 2.494 0 10.389 8.631 18.808 19.281 18.808 10.647 0 19.278-8.419 19.278-18.808 0-.844-.059-1.678-.17-2.494-1.253 9.204-9.331 16.308-19.108 16.308-9.78 0-17.858-7.104-19.111-16.308M730.085 602.475c-.111.816-.17 1.65-.17 2.494 0 10.389 8.631 18.808 19.281 18.808 10.647 0 19.279-8.419 19.279-18.808 0-.844-.06-1.678-.17-2.494-1.253 9.204-9.332 16.307-19.109 16.307-9.779 0-17.858-7.103-19.111-16.307M772.401 518.725c-.111.817-.17 1.65-.17 2.495 0 10.389 8.631 18.807 19.281 18.807 10.647 0 19.278-8.418 19.278-18.807 0-.845-.059-1.678-.17-2.495-1.253 9.204-9.331 16.308-19.108 16.308-9.78 0-17.858-7.104-19.111-16.308" fill="#361D05"/>
    <path d="M797.085 500.212c-.111.817-.17 1.65-.17 2.495 0 10.389 8.631 18.807 19.281 18.807 10.647 0 19.278-8.418 19.278-18.807 0-.845-.059-1.678-.17-2.495-1.253 9.204-9.331 16.308-19.108 16.308-9.78 0-17.858-7.104-19.111-16.308M798.321 438.542c-.111.816-.17 1.649-.17 2.497 0 10.386 8.631 18.805 19.278 18.805 10.647 0 19.278-8.419 19.278-18.805 0-.848-.056-1.681-.17-2.497-1.253 9.204-9.328 16.307-19.108 16.307-9.78 0-17.858-7.103-19.108-16.307" fill="#361D05"/>
  </g>
</svg>